# xmcd CD database file
#
# Track frame offsets:
#	150
#	10587
#	42505
#	74620
#	80707
#	103620
#	115690
#	139707
#	148620
#
# Disc length: 2574 seconds
#
# Revision: 1
# Processed by: cddbd v1.5.1PL2 Copyright (c) Steve Scherf et al.
# Submitted via: CDex 1.70beta1
#
DISCID=7a0a0c09
DTITLE=アーティスト情報なし - アルバム情報なし (2005/03/14 16:45:51)
DYEAR=1900
DGENRE=Classical
TTITLE0=トラック 1
TTITLE1=トラック 2
TTITLE2=トラック 3
TTITLE3=トラック 4
TTITLE4=トラック 5
TTITLE5=トラック 6
TTITLE6=トラック 7
TTITLE7=トラック 8
TTITLE8=トラック 9
EXTD=
EXTT0=
EXTT1=
EXTT2=
EXTT3=
EXTT4=
EXTT5=
EXTT6=
EXTT7=
EXTT8=
PLAYORDER=
